<svg xmlns="http://www.w3.org/2000/svg" viewBox="0 0 228.42 89.85"><defs><style>.cls-1{fill:#9bc9ff;}</style></defs><title>Asset 1</title><g id="Layer_2" data-name="Layer 2"><g id="Layer_1-2" data-name="Layer 1"><path class="cls-1" d="M28.77,43.84l-.18-1.18L28,41.3l-.45-1.09L26.23,38l-.54-.64-.54-.54-.45-.64-.54-.64-.45-.64-.54-.64-.54-.54L22,33.22l-.54-.54L20.33,31.4l-.45-.54-.64-.73-.45-.36-.64-.64-1.63-1.91-.64-.82L14,23.69l-.54-1-.36-.82-.27-.73-.27-.82L12,18.88l-.18-.82-.09-.73v-.82l-.09-.91V14.43l.09-1.09.09-.91.09-.82L12.25,10l.36-.82.27-.82.36-.73.45-.82.45-.64.54-.73.54-.64,1.18-1.18.64-.54.73-.45,1.45-.73.82-.36L22.24.73l1-.27L24.87.09h1.82L28.14,0H29l1.18.09,1,.09L33,.54l.82.27.73.36.82.36L37.3,2.72l.73.54.64.54.45.54.54.64.54.73.64.91.54,1,.27.82.18.82.09.91.18,1.09v2.81l-.09.82-.18.82-.36.73-.64.45-.73.36-.82.09-.73.09-.82-.18L37,16.79l-.64-.91-.27-1L36,14V12.25l-.09-.82-.27-.73-.27-.82L35,9.17l-.45-.73L34,7.81l-.64-.54-.64-.45L32,6.35l-.73-.27-.82-.27-.73-.09-2.54-.27h-.82l-.91.09-1.63.54L22.42,7l-.64.54-.64.64-.45.64-.45.82-.27.73-.36.82-.27.82-.18.91-.09.82v1.72l.09.82.18.82.18.73.36.82.27.73.45.82.54,1.09.54,1,.91,1.45,2.18,2.54.45.64L27,28.68l2.18,2.54L30.4,32.4l.45.64,1,1.27.54.64.54.73.45.64.36.73.45.73.73,1.45.36.82.36.73.27.82.27.73.18.82.09.82.18.82.09.82-.09.91-.18,1.63-.36,1.63-.09.82-.09.73-.18.82-.27.82-.36.73-.36.82-1.09,2-.54.82-.54.64-.64.64-.45.36-.73.64-.45.45-1.45,1.09-1.45.73-.73.45-.91.36L25,62.9l-.64.18-.82.27-.91.18-.82.09-.64.18-2.72.27H16.25L13.8,63.8h-.64l-.91-.18L11,63.35l-1.91-.64-.73-.36-.64-.45-.91-.54L5.35,60.26,3.9,58.81l-.54-.64-.91-1.27L2,56.18l-.45-.64L1,53.91l-.18-.82L.54,52,.27,50.83.09,50,0,49.19V47.47l.09-.73V45.11l.09-.82.54-2.45L1,40.75l.27-1.18.27-.82.73-.82,1.27-.54H4.9l1.18.27.73.54.45.82v1.09L7.17,41,7,41.84l-.27.82-.09.82-.18.82v2.54l.27,2.45.18.82.82,2.45.45.73.54.82.27.45.64.73.54.54.64.54.73.45.64.45.73.45.82.36.73.27.91.18.82.09h1.09l2.54-.18,1.09-.09.82-.27,1.45-.54.73-.36.73-.45.73-.82.82-.82.54-.73.54-.91.54-1,.36-.91.36-1.09.36-1.36L29,47.92l.09-.91L29,45.83,29,44.74Z"/><path class="cls-1" d="M84.13,45.92l-.91,1.81-.45,1-.36.82L81.5,51l-.64,1-.63.91-1.36,2.18-.45.64-.54.64-2,2.27-.73.73-.63.54-1.18,1.18L72.06,62l-1.45.91-.73.27-1.54.45-.82.27L66.7,64H65.16l-1-.09-.82-.09-.73-.27-.82-.27-.73-.36-.73-.45L59.72,62l-.64-.54-.45-.64-.91-1.45L57,57.81l-.27-.73-.27-.82-.36-1.63L56,53.82l-.09-.91-.18-1.63V48.74l-.09-.82V47.1l.27-.82.64-.64.91-.54.82-.36.73-.45,2.27-1.09.91-.64,1-.64,3.27-2.45,1.09-1.09.54-.64.45-.64.45-.73.36-.73.27-.73.27-.82L69.79,33l-.27-1.09L69,31.31l-.73-.45-.73-.27-.82-.18-.91.09-1.63.36-.73.27-.82.36-.73.36-.64.45-.73.45-1.27.91-1.18,1-.82.73-.64.64-.45.64-.54.64-.54.73-.36.45-.54.82-.54.73-.36.73-.45.73-.27.82-.73,1.45-.36.82-.27.82-.27,1.09-.27,1.18-.18.82-.27.82L50,50.1l-.27.82-.18.73-.18.82-.09.82-.27,1-.18.45-.18,1-.54,2.45L48,59l-.18.82-.09.82-.36.82-.64.82L45.56,63,44,63.35l-1.45.09-1.09-.18-.82-.36-.45-.82L40.11,61l.36-1.63.09-.82.27-.82.18-.82.27-.82.18-.73.09-.82.27-.82.18-.82.27-.82.09-.82.18-.73.09-.82L43,48.1l.27-.82.36-1.54.27-.82.36-1.63.18-.73.18-.82.27-.82.18-.82.18-.73.54-1.63.18-.82.27-.73.18-.82.27-.82.18-.82L47.1,33l.18-.82.27-.82L48.1,29l.18-.73.54-1.63.27-.73.27-.82.73-2.27.54-1.63.18-.73L51,19.6l.27-.82.18-.82.27-.73.27-.82.18-.82.27-.73.27-.82.36-.91.36-.73.18-.64.36-.91.18-.54.27-.91.27-.73.36-.82.27-.73.36-.73L56,5.72l.36-.82.36-.73.36-.82.45-1.09.64-.91.64-.54.82-.09h.82l.82.09,1,.27.54.18.91.36.64.54.27.64-.18.82-.36.82L63.89,5l-.45.82-.27.73-.54,1.63-.27.73-.18.82-.36.91-.18.54-.27.91-.27.82-.27.73-.54,1.63-.54,1.54-.54,1.63-.27.73-.27.82-.27.73-.27.82-.27.73-.54,1.63-.18.73-.18.82-.27.82-.18.82-.36.73-.27.82L55.27,31l-.27.73-.27.82-.18.82-.18.54h.18l.82-1.09,1.09-1.27.45-.64,1.18-1.18.54-.45.64-.45.82-.64,1.45-.91,2.18-1.18.73-.45.82-.27.64-.18L66.7,25l.91-.18,2.54-.09H71l1.63.36.82.27.63.45.64.54.54.45.54.64.45.73.36.82.18.73.18.82.09.82v.82l-.18,1.09-.18,1.18-.27.82-.27.73-.36.82-.54,1-.63.91-.45.73-.54.73-.54.64-.54.54-.63.54-.54.36-.64.54-1.36,1.09-.63.45-.73.45-1.36.82L66,46l-.73.36-.82.36-.91.36-.54.09-.82.45-.36.54-.09.73.09,1.18.09,1.45L62,52.73l.18.82.27,1.09L63.07,56,64,57.18l1.18,1,1.27.54,1.18.09h.91l.91-.18.82-.27L71,58l1.45-.91L73.69,56l1.18-1.18.45-.64,2-2.72,1.36-2.18.54-.64.45-.73.45-.91.18-.45L81.5,44.2l.36-.82.45-.64.82-.45,1.09.18.64.91v1l-.27.82Z"/><path class="cls-1" d="M126.42,43.38l.09,1-.36.73-.36.91L125,47.65l-.54,1-.54.82-.54,1-.45,1-.36.82-.91,1.45-.36.45-.45.82-.45.73-.54.73-.64.82-.73.91-.54.73-.63.54-1.18,1.18-.45.54-.64.64-1.18,1-.63.54-.73.64-1.54,1-.54.36-2,1.27-1.63.82-1,.45-.64.54-.54.54L104,70.61l-.18.82L103,73.88l-.27.91-.27.82-.18.91-.36,1.09-.45,1.09-.36.82-.27.73-.45.82-.18.54-.45.82L99,83.86l-.45.64-1.09,1.27-.54.54-.64.54-.73.54-.91.63-1,.54-.82.45-1.09.36-1.27.27-1.09.18H86.94l-1.45-.27-1.09-.36-.91-.36-.91-.73-1-1-.73-.91-.45-.91-.27-1.09L80,83.14v-.82L80,81.5l.18-.82.18-.73.18-.82.27-.73.36-.82.54-1,.64-1,.63-.73,1.63-1.63.73-.45.82-.54,2.45-1.72.73-.45.91-.45.45-.27,2.36-1.09.54-.18,1.18-.54,1.09-.45.82-.45,1-.45.82-.73.45-.73.27-.82.18-.73.18-.82.27-.82.27-.73.27-.82.45-1.54.27-.82.18-.82.73-2.18.18-.91.18-.82h-.09l-.45.64-.54.64-.45.64-.54.64-.91,1.27-.54.64-.63.73L97.2,59.18l-.91.73-.82.82-.73.54-.63.45-.82.36-.91.54-1.09.54-.82.27-1.63.36-1.09.09-1.18.18L85.76,64l-1-.18-.82-.18L83,63.26l-1-.45-.73-.54-.63-.54L80.22,61l-.45-1-.36-1.09L79.32,58V56.91l-.09-1.18v-.91l.09-1.09.18-1.18.09-.91.18-.91L80,50.1l.18-.91.09-.82.27-.82.18-.82.27-.82.73-3.27.27-.73.54-1.63.36-.91.27-.82.18-.64.54-1.63.27-.73.27-.91.09-.82.27-.73.54-1.63.18-.82.27-.82.54-2.45.27-.73.45-.54.82-.36.82-.09.91-.09h.82l.91.09.73.18.73.45.36.64v.73L93,28.5l-.18.82-.27.82L92,32.58l-.18.73-.18.82-.27.82-.54,2.45-.18.73-.18.82-.36.82-.27,1.18L89.57,42l-.36,1.63-.54,1.63-.09.82-.18.82-.18.73-.27.82-.18.82-.18.91-.09.54-.27,1-.18.82-.18.91-.09.82V56l.09.82.36.82.54.54.82.27.82.18.82.09.82-.18.82-.27.73-.45.63-.54.73-.54.73-.64.36-.36.91-.73L97,53.91l.54-.64.45-.64.64-.82.27-.45.54-.82.54-.73.45-.64.45-.82.36-.73.27-.82L102,46l.36-.45.73-1.63.27-.73.27-.82.54-1.18.54-1.27.36-1.18.18-.82.27-.82.18-.82.27-.73.36-.82.36-1,.27-1.09.27-.91.36-1.63.27-1,.27-1.09.27-.91.36-.73.54-.54.82-.27.82-.09h1.72l.91.18.82.27.73.45.27.64v.82l-.09.82-.27.82-.54,1.45-.27.82-.18,1.18L113.81,34l-.27.91L113.26,36l-.36,1-.27.91L112.35,39,112,40.21l-.36,1.63-.27.82-.27,1.09-.36,1.09-.18.82-.27.82-.18.82-.27,1.09-.27,1.18-.27.82-.18.73-.27.82L108.54,53l-.36,1.09L108,55l-.27,1.18-.18,1.09-.36,1.63-.27.91-.18.54-.27.91v.91l.54.27,1.18-.36,1-.54.82-.45.63-.45.73-.54.63-.64.45-.36.73-.73.63-.54.54-.54.63-.54.54-.64.45-.64,1.09-1.27.54-.54.45-.64.54-.73.45-.73.82-1.45.91-1.45,1-2,.45-.82.45-.73,1.09-2.18.82-.54,1.09.09ZM96.74,73.24l.18-1.09-.45-.27-.91.36-.73.45-.73.54-.64.45-1.91,1.09-.63.54-.73.54-1.45,1.45-.91,1.18L87,79.78l-.45,1.36-.09,1.09.18.82.82.82,1.18.54h1.18l.91-.27,1.45-.91.64-.73.45-.73.54-.64.45-.73.45-.91.36-.82.27-.64.27-.91L96,76.06l.36-1.36Z"/><path class="cls-1" d="M143.21,31l-.73.36-.63.36-.64.45-.73.54-.64.54-1.45,1-.63.45-.64.54-.63.64-1.09,1.27-.63.64-1.09,1.27-.91,1.45-.54.73-1.09,2.18-1,3-.27,1.18L129.5,49l-.36,1.18-.54,2.45-.36,1.18-.36,1.36-.27,1.18-.27.82-.27,1.18-.18,1-.27.91-.09.82-.18.73-.27.73-.54.45-.82.27-.82.09-1.18.09-1.36-.09-1.18-.18-.73-.36-.54-.82-.09-1,.18-.91.27-1.18.27-1.09.18-.82.27-.82.18-.82.27-.73.27-.82.18-.82.18-.73.18-.82.27-.82.27-.73.36-1.63.18-.73.09-.82.27-.82.18-.82.27-.82.27-1.09.36-1.18.45-1.63.18-.73.18-.82.27-.82.18-.82.27-.73.18-.82.27-.82.27-1.18.27-1.09.18-.82.54-1.63.18-.73.27-.82.36-1.63.64-.91,1.18-.64,1.45-.18,1.45.18,1.36.45.91.91.18,1.09-.18.91-.18.64-.27.82-.18.82-.27.73-.18.82-.27.82-.18.82-.09.54.09.09.36-.45.54-.64.45-.64,1.09-1.27.64-.54,1.18-1,.63-.54,1.18-1.18,1.81-1.45.73-.45.73-.36.73-.45.73-.27.82-.27,1.18-.27,1.09-.18h2.09l1.45.18,1,.18.82.36.82.45.63.64.45.64.45.73.36.73.27.82.27,1.09.18,1.09v1.72l-.09.82v.82l-.09.73-.18.82-.18.91-.18.54L155,39l-.27,1.18-.36,1.36L154,42.75l-.27.82-.27,1.18-.36,1.54-.36,1.45L152.38,49l-.18.82-.18.64-.18.82-.27.82-.18.73-.54,2.45-.09.82v1.63l.36.73.64.45.82.09.82-.27.82-.36.73-.45.63-.45.73-.54,1.18-1.18.45-.64.54-.73.45-.64.64-.73.45-.64.54-.82.82-1.36.54-.82.27-.45.54-.82.45-.82.73-1.45.36-.82.27-.73.27-.82.45-.73.82-.54,1.18.27.73.91v.91l-.27.82-.36.73-.36.82-.36.73-.45.73-.36.73-.54.82-.27.54-.91,1.63-.18.54-.45.82-.91,1.45-.54.82-.36.45-.54.73-.64.82-.54.64-1,1.09-.54.64-1.27,1.09-.54.54-.73.54-.73.45-1.45.73-.73.27-.82.27-.82.18-.73.09-.91.09h-.82L148,64l-.73-.18-.82-.27-.73-.27-.73-.45-.54-.45-.54-.64-.36-.82-.27-.73-.18-.82-.18-.73v-2l.18-1.18.09-.91.27-1.18.82-3,.27-1.54.36-1.54.36-1.45.36-1.18.27-.82.36-1.18.36-1.45.27-1.45.36-1.18.36-1.63.09-.82.36-1.72.09-.82-.18-.91-.54-.91-.82-.82-.82-.27-.82-.09-.82.09Z"/><path class="cls-1" d="M194,41.39l-.45.64-1.09,1.27-1.27,1.09-.64.45-.82.45-.54.18-.91.54-.54.27-.82.36-.91.27-.82.27-.82.09-.91.18-1,.09-1.09.18-.82.09h-.82l-1.63-.18-1.63-.09-.82-.09-2.45-.54h-.63l-.45.36-.18.64v.82l-.09.91v1.54l.09.91.18.73.54,1.63.91,1.45.54.64.54.54,1.45.91.91.27.82.27.63.09.82.18.82.09h.91l.82-.09,2.36-.45.82-.18.82-.27.73-.27,1.54-.64,1.45-.73,1.27-1,.64-.45.63-.54,1.27-1.18,1.09-1.27.45-.64.54-.73.91-1.27.45-.73.36-.73.45-.73.36-.73.45-.64.36-.73.36-.82.36-.73.45-.73.63-.45h.82l.82.54.45.82-.09.82-.36.82-.45,1-.54,1-.45,1-.54,1-.54.91-.91,1.45-.27.54-.54.82-.91,1.27-.54.64-.54.54-.54.64-.64.73-.27.36-.63.73-.54.64-1.27,1.09-.91.73-.82.73-1.45.91-2.27,1-.73.27-.82.27-1.18.18-1.09.27-1.91.18-1.18.09-1,.09H178l-3.27-.36-.73-.18-.82-.27-.82-.36-.73-.36-1.45-.82-.73-.36L168.8,61l-.63-.64-.36-.45-.64-.73-.54-.64-.45-.73-.36-.64-.36-.82-.27-.73-.27-.82-.18-.82-.18-.73-.18-.82L164.08,50V48.28l.09-.82v-.82l.54-2.45.27-.73.18-.82.27-.82.18-.82.27-.82.36-1,.45-1.09.45-.82.54-1,.64-.91.36-.82.45-.64.54-.64,1.36-1.45,1.36-1.36.73-.64.82-.64.91-.64.82-.64.91-.54.91-.45.82-.36,1.18-.54,1.91-.64L183,25l1.18-.18h2l1.18.18,1.45.27,1.18.27.82.27.82.36.73.36.54.36L194.21,28l.54.64.54.91.45,1.09.27.82.18.82.09.82v1.09l-.09,1.18-.09.91-.27,1.09-.36,1.09-.36.91-.27.45-.45.82ZM183,30.5l-1.27.54-1.09.54-.73.45-1.27,1.09-.82.82-.73.82-.64.73-.64,1-.63.91-.45.82-.54,1-.36,1.09-.36.82-.27.73-.09.64.45.45,1.18.27,1.82.09.91.09H180l.91-.18.82-.18.91-.36.54-.18L184,42l.63-.45.64-.54.63-.64.64-.54.54-.73.45-.64.36-.73.45-.82.54-1.63.18-.91.09-.82-.09-.91-.36-.82-.54-.64-.73-.54-.82-.36-.82-.18L185,30l-.91.18Z"/><path class="cls-1" d="M228.42,43.38v1l-.36.91-1.09,2-.36.82-.36.73-.91,1.45-.36.64-.45.73L223.8,53l-.36.64-.54.82-1.09,1.27-.45.73-.45.64-.54.64-1.72,1.72-1.27,1-1.27,1.09-.73.54-1,.54-1.09.45-.82.36-.82.27-.73.18-.82.09h-2.54l-.82-.09-.82-.18-1.09-.36-1-.45-.73-.45-1.27-1.09-.45-.64-.45-.73-.73-1.45-.27-.73-.27-.82-.18-.82-.18-.73v-.82l-.09-.82V53l-.09-.91v-.82l.27-2.45V48l.45-4.08.18-.82.09-.82.36-1.63.27-1.18.27-1.09.18-.82.27-.82.18-.82.27-.82.18-.82.18-1.09.36-1.18.54-1.63v-.73l-.27-.45-.64-.18-.73-.09-.91-.18-.91-.36-.64-.82-.18-.82-.09-.91.18-.73.36-.64.64-.45L201.2,24l1.36.09h1.36l.91-.27.36-.64.18-.91.18-.73.27-.82.36-.73.36-.82.27-.73.54-1.63.36-1.63.27-.82.36-.73.54-1.63.27-.73.36-.82.27-.82.27-.73.27-.82.36-.73.36-.82.18-.73.27-.82.36-.82.45-.64.73-.45.82-.18.91.09,1.09.18,1.18.27.82.45.73.64.27,1-.18.82-.45,1.18-.54,1.27L217.26,10l-.27.91-.18.54-.27.91-1,3-.27.73-.27.82-.36,1.18-.54,1.36-.64,1.91-.18.82-.36.73-.27.73v.64l.54.45,1,.18h.91l1.54-.09,1.27-.09h2.81l1.18.09.63.54.18,1V27.5l-.27.82L222,29l-.64.45-.82.27-.82.18-.91.09-2.45.09h-1l-.82-.09h-3.36l-.54.36-.27.73L210,32.13l-.36,1.45-.36,1.54-.45,1.45-.36,1.54-.36,1.45-.27,1.27-.09.54-.27,1.27-.27,1-.27.91-.36,1.63-.09,1.09-.18,1.18-.18,1.63v2.54l.18,1.18.18,1.09.27.82.36.82.45.64,1,.64,1.27.54,1,.18h.91l1-.18,2.18-1.09,2.54-2.18.63-.64.45-.54.91-1.18,1.18-1.45.45-.64.36-.73.45-.73.54-.73.45-.64.45-.73.36-.73.27-.82.45-.91.45-.73.54-.91,1.09-.73,1.18.18Z"/></g></g></svg>